<svg width="56" height="16" viewBox="0 0 56 16" fill="none" xmlns="http://www.w3.org/2000/svg">
<path d="M11.74 0.999999V3.1L6.54 15H3.02L8.04 3.64H3.4V5.92H0.52V0.999999H11.74ZM18.7917 15.24C17.6317 15.24 16.5984 14.9533 15.6917 14.38C14.7851 13.8067 14.0717 12.98 13.5517 11.9C13.0451 10.8067 12.7917 9.50667 12.7917 8C12.7917 6.49333 13.0451 5.2 13.5517 4.12C14.0717 3.02667 14.7851 2.19333 15.6917 1.62C16.5984 1.04667 17.6317 0.76 18.7917 0.76C19.9517 0.76 20.9851 1.04667 21.8917 1.62C22.7984 2.19333 23.5051 3.02667 24.0117 4.12C24.5317 5.2 24.7917 6.49333 24.7917 8C24.7917 9.50667 24.5317 10.8067 24.0117 11.9C23.5051 12.98 22.7984 13.8067 21.8917 14.38C20.9851 14.9533 19.9517 15.24 18.7917 15.24ZM18.7917 12.5C19.6451 12.5 20.3117 12.1333 20.7917 11.4C21.2851 10.6667 21.5317 9.53333 21.5317 8C21.5317 6.46667 21.2851 5.33333 20.7917 4.6C20.3117 3.86667 19.6451 3.5 18.7917 3.5C17.9517 3.5 17.2851 3.86667 16.7917 4.6C16.3117 5.33333 16.0717 6.46667 16.0717 8C16.0717 9.53333 16.3117 10.6667 16.7917 11.4C17.2851 12.1333 17.9517 12.5 18.7917 12.5ZM43.25 15V8.56L40.03 13.96H38.71L35.57 8.54V15H32.75V4.24H36.01L39.45 10.46L43.11 4.24H46.03L46.07 15H43.25ZM55.3586 6.78V8.46H48.3786V7.12L51.8386 4.12C52.2119 3.8 52.4653 3.53333 52.5986 3.32C52.7453 3.09333 52.8186 2.88 52.8186 2.68C52.8186 2.4 52.6986 2.17333 52.4586 2C52.2186 1.82667 51.8586 1.74 51.3786 1.74C50.9786 1.74 50.6119 1.82 50.2786 1.98C49.9586 2.12667 49.7053 2.33333 49.5186 2.6L47.9186 1.64C48.2519 1.13333 48.7253 0.733333 49.3386 0.439999C49.9519 0.146666 50.6919 -1.19209e-06 51.5586 -1.19209e-06C52.6386 -1.19209e-06 53.4853 0.233332 54.0986 0.699999C54.7253 1.16667 55.0386 1.77333 55.0386 2.52C55.0386 2.94667 54.9253 3.35333 54.6986 3.74C54.4853 4.11333 54.0719 4.56667 53.4586 5.1L51.5386 6.78H55.3586Z" fill="black"/>
</svg>
